<svg height="512pt" viewBox="-1 -4 512.00991 512" width="512pt" xmlns="http://www.w3.org/2000/svg"><g fill="#c03a2b"><path d="m238.9375 157.871094c-11.78125 0-21.332031-9.550782-21.332031-21.332032s9.550781-21.335937 21.332031-21.335937 21.335938 9.554687 21.335938 21.335937c0 5.65625-2.25 11.082032-6.25 15.085938-4 4-9.425782 6.246094-15.085938 6.246094zm0-34.132813c-7.070312 0-12.800781 5.730469-12.800781 12.800781 0 7.070313 5.730469 12.800782 12.800781 12.800782s12.800781-5.730469 12.800781-12.800782c0-7.070312-5.730469-12.800781-12.800781-12.800781zm0 0"/><path d="m273.070312 157.871094c-11.78125 0-21.332031-9.550782-21.332031-21.332032s9.550781-21.335937 21.332031-21.335937c11.785157 0 21.335938 9.554687 21.335938 21.335937s-9.550781 21.332032-21.335938 21.332032zm0-34.132813c-7.066406 0-12.796874 5.730469-12.796874 12.800781 0 7.070313 5.730468 12.800782 12.796874 12.800782 7.070313 0 12.800782-5.730469 12.800782-12.800782 0-7.070312-5.730469-12.800781-12.800782-12.800781zm0 0"/><path d="m8.539062 384.003906c-1.085937 0-2.164062-.207031-3.175781-.605468-2.101562-.839844-3.78125-2.480469-4.671875-4.5625-.894531-2.078126-.921875-4.429688-.082031-6.53125l17.066406-42.664063c.78125-1.941406 2.242188-3.53125 4.113281-4.464844l51.203126-25.601562c2.726562-1.359375 5.976562-1.164063 8.519531.515625 2.542969 1.683594 4 4.59375 3.816406 7.640625-.1875 3.042969-1.980469 5.757812-4.707031 7.121093l-48.300782 24.148438-15.855468 39.644531c-1.296875 3.242188-4.4375 5.363281-7.925782 5.359375zm0 0"/><path d="m25.605469 435.203125c-1.085938 0-2.164063-.203125-3.175781-.605469-2.101563-.839844-3.78125-2.480468-4.671876-4.5625-.894531-2.078125-.921874-4.429687-.082031-6.53125l17.070313-42.664062c.777344-1.941406 2.238281-3.53125 4.109375-4.464844l51.203125-25.597656c4.214844-2.109375 9.34375-.394532 11.449218 3.820312 2.109376 4.21875.394532 9.347656-3.820312 11.453125l-48.300781 24.148438-15.855469 39.648437c-1.296875 3.238282-4.4375 5.359375-7.925781 5.355469zm0 0"/><path d="m51.203125 486.40625c-1.085937-.003906-2.160156-.207031-3.171875-.605469-2.101562-.84375-3.785156-2.484375-4.675781-4.5625-.890625-2.082031-.917969-4.429687-.078125-6.53125l17.066406-42.667969c.777344-1.941406 2.242188-3.53125 4.113281-4.464843l51.199219-25.597657c4.21875-2.105468 9.347656-.394531 11.453125 3.824219 2.105469 4.214844.394531 9.34375-3.824219 11.449219l-48.296875 24.148438-15.855469 39.648437c-1.296874 3.238281-4.4375 5.359375-7.929687 5.359375zm0 0"/><path d="m503.472656 384.003906c-3.492187.003906-6.628906-2.117187-7.929687-5.359375l-15.855469-39.652343-48.296875-24.148438c-4.21875-2.109375-5.929687-7.234375-3.824219-11.453125 2.109375-4.21875 7.234375-5.929687 11.453125-3.824219l51.199219 25.601563c1.871094.933593 3.335938 2.519531 4.113281 4.460937l17.066407 42.667969c.839843 2.101563.8125 4.449219-.078126 6.53125-.890624 2.082031-2.574218 3.722656-4.675781 4.5625-1.007812.402344-2.085937.609375-3.171875.613281zm0 0"/><path d="m486.40625 435.203125c-3.492188.003906-6.628906-2.117187-7.929688-5.355469l-15.855468-39.65625-48.296875-24.148437c-4.21875-2.105469-5.929688-7.234375-3.824219-11.453125 2.109375-4.21875 7.234375-5.929688 11.453125-3.820313l51.199219 25.597657c1.871094.933593 3.335937 2.523437 4.113281 4.464843l17.066406 42.664063c.839844 2.101562.8125 4.453125-.078125 6.53125-.890625 2.082031-2.574218 3.722656-4.675781 4.5625-1.007813.402344-2.085937.613281-3.171875.613281zm0 0"/><path d="m460.804688 486.40625c-3.488282 0-6.628907-2.121094-7.925782-5.359375l-15.855468-39.65625-48.300782-24.148437c-4.214844-2.105469-5.929687-7.234376-3.820312-11.453126 2.105468-4.214843 7.230468-5.929687 11.449218-3.820312l51.199219 25.597656c1.875.933594 3.335938 2.523438 4.113281 4.464844l17.070313 42.664062c.839844 2.101563.8125 4.453126-.082031 6.53125-.890625 2.082032-2.570313 3.722657-4.671875 4.5625-1.011719.402344-2.089844.613282-3.175781.617188zm0 0"/><path d="m153.605469 503.472656c-4.714844 0-8.535157-3.820312-8.535157-8.535156v-25.597656c.003907-1.6875.503907-3.332032 1.433594-4.738282l17.066406-25.597656c1.695313-2.539062 4.609376-3.980468 7.652344-3.78125 3.042969.195313 5.75 2 7.101563 4.734375 1.347656 2.734375 1.140625 5.980469-.554688 8.515625l-15.632812 23.425782v23.039062c0 4.714844-3.820313 8.535156-8.53125 8.535156zm0 0"/><path d="m358.40625 503.472656c-4.714844 0-8.535156-3.820312-8.535156-8.535156v-23.039062l-15.632813-23.449219c-2.617187-3.921875-1.558593-9.21875 2.363281-11.835938 3.921876-2.617187 9.222657-1.558593 11.835938 2.363281l17.066406 25.601563c.9375 1.410156 1.4375 3.066406 1.433594 4.761719v25.597656c0 4.714844-3.820312 8.535156-8.53125 8.535156zm0 0"/><path d="m238.9375 204.804688c-4.710938 0-8.53125-3.820313-8.53125-8.53125v-42.667969c0-4.714844 3.820312-8.535157 8.53125-8.535157 4.714844 0 8.535156 3.820313 8.535156 8.535157v42.667969c0 4.710937-3.820312 8.53125-8.535156 8.53125zm0 0"/><path d="m273.070312 204.804688c-4.710937 0-8.53125-3.820313-8.53125-8.53125v-42.667969c0-4.714844 3.820313-8.535157 8.53125-8.535157 4.714844 0 8.535157 3.820313 8.535157 8.535157v42.667969c0 4.710937-3.820313 8.53125-8.535157 8.53125zm0 0"/><path d="m69.125 77.402344h-.085938l1.261719-2.074219-.324219-.230469-36.070312 47.523438c-9.785156 13.046875-8.972656 31.191406 1.9375 43.316406l75.640625 82.96875 27.308594-17.835938-59.640625-67.140624c-10.488282-12.152344-11.09375-29.96875-1.453125-42.800782l9.261719-12.324218zm0 0"/><path d="m442.886719 76.804688h.082031l-.511719-1.484376.34375-.257812 36.777344 47.558594c9.789063 13.042968 8.980469 31.191406-1.929687 43.316406l-73.09375 78.1875-28.785157-17.832031 57.089844-62.363281c10.488281-12.152344 11.089844-29.96875 1.449219-42.800782l-9.257813-12.324218zm0 0"/></g><path d="m443.738281 290.136719-10.070312 21.421875-9.8125 20.734375-44.800781 95.230469c-2.234376 4.855468-6.632813 8.367187-11.859376 9.472656l-102.65625 22.015625-4.949218 1.023437c-2.363282.515625-4.808594.515625-7.167969 0l-4.949219-1.023437-102.65625-22.015625c-5.230468-1.105469-9.628906-4.617188-11.863281-9.472656l-44.800781-95.230469-9.8125-20.734375-10.066406-21.421875c0-50.089844 100.179687-90.878907 179.199218-93.695313 2.898438-.085937 5.714844-.167968 8.53125-.167968s5.632813.082031 8.535156.167968c79.019532 2.816406 179.199219 43.605469 179.199219 93.695313zm0 0" fill="#e64c3c"/><path d="m351.78125 413.871094c-2.914062-.011719-5.617188-1.511719-7.175781-3.976563-1.554688-2.464843-1.742188-5.554687-.503907-8.191406l28.238282-60.007813c1.242187-2.847656 3.933594-4.796874 7.027344-5.085937s6.101562 1.125 7.847656 3.691406c1.75 2.570313 1.964844 5.886719.5625 8.65625l-28.273438 60.050781c-1.417968 2.976563-4.421875 4.871094-7.722656 4.863282zm0 0" fill="#c03a2b"/><path d="m433.667969 311.558594-9.8125 20.734375c-3.414063-1.191407-5.703125-4.40625-5.71875-8.019531 0-41.558594-74.835938-82.433594-153.597657-85.164063-2.816406-.085937-5.71875-.171875-8.535156-.171875s-5.714844.085938-8.53125.171875c-78.765625 2.730469-153.601562 43.605469-153.601562 85.164063-.015625 3.613281-2.304688 6.828124-5.71875 8.019531l-9.8125-20.734375c11.863281-50.261719 93.101562-86.957032 169.132812-89.601563 2.816406 0 5.714844-.085937 8.53125-.085937s5.71875.085937 8.535156.085937c76.03125 2.644531 157.269532 39.339844 169.128907 89.601563zm0 0" fill="#c03a2b"/><path d="m238.851562 68.273438c-1.109374-36.867188-38.910156-68.26953175-85.246093-68.26953175-47.105469 0-85.332031 30.55078175-85.332031 68.26953175-.015626.453124.011718.910156.082031 1.363281v.339843c.265625 9.503907 2.9375 18.78125 7.765625 26.96875zm0 0" fill="#e64c3c"/><path d="m221.871094 68.273438c0 30.632812-34.390625 59.730468-76.800782 59.730468-30.292968 0-56.488281-12.628906-68.949218-31.058594zm0 0" fill="#e64c3c"/><path d="m128.003906 93.871094c-3.144531-.003906-6.035156-1.734375-7.519531-4.511719-1.480469-2.773437-1.316406-6.140625.429687-8.757813l17.066407-25.597656c1.253906-1.886718 3.207031-3.191406 5.429687-3.636718 2.21875-.441407 4.523438.015624 6.40625 1.269531l18.5 12.332031 12.332032-18.5c1.417968-2.125 3.714843-3.503906 6.257812-3.753906 2.542969-.253906 5.066406.648437 6.875 2.457031l14.554688 14.566406h30.601562c4.714844 0 8.535156 3.820313 8.535156 8.535157 0 4.710937-3.820312 8.53125-8.535156 8.53125h-34.132812c-2.261719 0-4.433594-.898438-6.03125-2.5l-9.710938-9.703126-11.292969 16.9375c-1.253906 1.886719-3.207031 3.191407-5.425781 3.636719-2.21875.441407-4.523438-.015625-6.40625-1.269531l-18.503906-12.332031-12.328125 18.5c-1.582031 2.371093-4.246094 3.796875-7.101563 3.796875zm0 0" fill="#c03a2b"/><path d="m435.886719 96.945312c4.828125-8.1875 7.5-17.464843 7.765625-26.96875v-.339843c.070312-.453125.101562-.910157.085937-1.363281 0-37.71875-38.230469-68.26953175-85.332031-68.26953175-46.335938 0-84.140625 31.40234375-85.25 68.26953175zm0 0" fill="#e64c3c"/><path d="m435.886719 96.945312c-12.457031 18.429688-38.65625 31.058594-68.949219 31.058594-42.410156 0-76.800781-29.097656-76.800781-59.730468zm0 0" fill="#e64c3c"/><path d="m384.003906 93.871094c-2.855468.003906-5.523437-1.421875-7.105468-3.796875l-12.324219-18.5-18.5 12.332031c-1.882813 1.253906-4.1875 1.710938-6.40625 1.269531-2.222657-.445312-4.171875-1.75-5.429688-3.636719l-11.289062-16.9375-9.710938 9.703126c-1.601562 1.601562-3.769531 2.5-6.035156 2.5h-34.132813c-4.710937 0-8.53125-3.820313-8.53125-8.53125 0-4.714844 3.820313-8.535157 8.53125-8.535157h30.601563l14.566406-14.566406c1.808594-1.808594 4.328125-2.710937 6.875-2.457031 2.542969.25 4.839844 1.628906 6.257813 3.753906l12.332031 18.5 18.5-12.332031c1.882813-1.253907 4.1875-1.710938 6.40625-1.269531 2.21875.445312 4.171875 1.75 5.429687 3.636718l17.066407 25.597656c1.746093 2.621094 1.910156 5.988282.425781 8.761719-1.484375 2.777344-4.378906 4.507813-7.527344 4.507813zm0 0" fill="#c03a2b"/><path d="m264.539062 307.203125v151.808594l-4.949218 1.023437c-2.363282.515625-4.808594.515625-7.167969 0l-4.949219-1.023437v-151.808594c0-4.710937 3.820313-8.53125 8.53125-8.53125 4.714844 0 8.535156 3.820313 8.535156 8.53125zm0 0" fill="#c03a2b"/><path d="m264.539062 196.441406v76.628906c0 4.714844-3.820312 8.535157-8.535156 8.535157-4.710937 0-8.53125-3.820313-8.53125-8.535157v-76.628906c2.898438-.085937 5.714844-.167968 8.53125-.167968s5.632813.082031 8.535156.167968zm0 0" fill="#c03a2b"/><path d="m256.003906 136.539062c0 9.425782-7.640625 17.066407-17.066406 17.066407s-17.066406-7.640625-17.066406-17.066407c0-9.425781 7.640625-17.066406 17.066406-17.066406s17.066406 7.640625 17.066406 17.066406zm0 0" fill="#fff"/><path d="m247.472656 136.539062c0 4.710938-3.820312 8.53125-8.535156 8.53125-4.710938 0-8.53125-3.820312-8.53125-8.53125 0-4.714843 3.820312-8.535156 8.53125-8.535156 4.714844 0 8.535156 3.820313 8.535156 8.535156zm0 0" fill="#2c2f38"/><path d="m290.136719 136.539062c0 9.425782-7.640625 17.066407-17.066407 17.066407-9.425781 0-17.066406-7.640625-17.066406-17.066407 0-9.425781 7.640625-17.066406 17.066406-17.066406 9.425782 0 17.066407 7.640625 17.066407 17.066406zm0 0" fill="#fff"/><path d="m281.605469 136.539062c0 4.710938-3.820313 8.53125-8.535157 8.53125-4.710937 0-8.53125-3.820312-8.53125-8.53125 0-4.714843 3.820313-8.535156 8.53125-8.535156 4.714844 0 8.535157 3.820313 8.535157 8.535156zm0 0" fill="#2c2f38"/><path d="m238.9375 128.003906c-.019531 4.007813-2.824219 7.464844-6.742188 8.304688-3.917968.839844-7.894531-1.15625-9.554687-4.804688 1.695313-5.367187 5.898437-9.570312 11.261719-11.265625 3.058594 1.375 5.027344 4.414063 5.035156 7.765625zm0 0" fill="#fff"/><path d="m273.070312 128.003906c-.015624 4.007813-2.820312 7.464844-6.742187 8.304688-3.917969.839844-7.894531-1.15625-9.554687-4.804688 1.695312-5.367187 5.898437-9.570312 11.261718-11.265625 3.058594 1.375 5.03125 4.414063 5.035156 7.765625zm0 0" fill="#fff"/></svg>